<?xml version="1.0" encoding="utf-8"?>
<!-- Generator: Adobe Illustrator 26.0.2, SVG Export Plug-In . SVG Version: 6.00 Build 0)  -->
<svg version="1.1" id="レイヤー_1" xmlns="http://www.w3.org/2000/svg" xmlns:xlink="http://www.w3.org/1999/xlink" x="0px"
	 y="0px" viewBox="0 0 22.2 29" style="enable-background:new 0 0 22.2 29;" xml:space="preserve">
<style type="text/css">
	.st0{fill:#FFCD30;}
</style>
<g>
	<path class="st0" d="M2,1.2C0,2.5-0.4,6.6,0.4,9.9c0.6,2.6,1.8,6,3.9,9.2c2,3,4.7,5.8,6.8,7.4c2.7,2,6.5,3.3,8.5,2
		c1-0.7,2.5-2.4,2.6-2.8c0,0-0.9-1.4-1.1-1.6l-2.9-4.5c-0.2-0.3-1.6,0-2.3,0.4c-0.9,0.5-1.8,2-1.8,2c-0.6,0.4-1.2,0-2.3-0.5
		c-1.4-0.6-2.9-2.6-4.2-4.4c-1.1-1.9-2.3-4.1-2.3-5.6c0-1.2-0.1-1.9,0.5-2.3c0,0,1.7-0.2,2.5-0.8c0.6-0.5,1.5-1.6,1.3-1.9L6.6,1.7
		C6.4,1.4,5.6,0,5.6,0C5.2-0.1,3,0.6,2,1.2z"/>
</g>
</svg>
