<?xml version="1.0" encoding="utf-8"?>
<!-- Generator: Adobe Illustrator 16.0.3, SVG Export Plug-In . SVG Version: 6.00 Build 0)  -->
<!DOCTYPE svg PUBLIC "-//W3C//DTD SVG 1.1//EN" "http://www.w3.org/Graphics/SVG/1.1/DTD/svg11.dtd">
<svg version="1.1" id="レイヤー_1" xmlns="http://www.w3.org/2000/svg" xmlns:xlink="http://www.w3.org/1999/xlink" x="0px"
	 y="0px" width="22.235px" height="29px" viewBox="0 0 22.235 29" enable-background="new 0 0 22.235 29" xml:space="preserve">
<g>
	<path d="M1.988,1.229c-1.993,1.292-2.385,5.332-1.632,8.624c0.586,2.564,1.832,6.003,3.932,9.242
		c1.976,3.047,4.732,5.778,6.835,7.359c2.699,2.029,6.548,3.32,8.54,2.027c1.008-0.653,2.505-2.439,2.572-2.76
		c0,0-0.878-1.354-1.069-1.65l-2.944-4.538c-0.219-0.338-1.59-0.029-2.287,0.365c-0.94,0.532-1.806,1.962-1.806,1.962
		c-0.645,0.372-1.186,0.002-2.313-0.518c-1.387-0.639-2.944-2.62-4.186-4.415c-1.134-1.865-2.307-4.097-2.323-5.623
		c-0.015-1.242-0.134-1.886,0.47-2.323c0,0,1.658-0.208,2.527-0.849C8.948,7.658,9.789,6.532,9.57,6.194L6.627,1.655
		c-0.192-0.297-1.07-1.65-1.07-1.65C5.236-0.063,2.995,0.575,1.988,1.229z"/>
</g>
</svg>
