<?xml version="1.0" encoding="utf-8"?>
<!-- Generator: Adobe Illustrator 26.0.2, SVG Export Plug-In . SVG Version: 6.00 Build 0)  -->
<svg version="1.1" id="レイヤー_1" xmlns="http://www.w3.org/2000/svg" xmlns:xlink="http://www.w3.org/1999/xlink" x="0px"
	 y="0px" viewBox="0 0 249.5 42" style="enable-background:new 0 0 249.5 42;" xml:space="preserve">
<style type="text/css">
	.st0{clip-path:url(#SVGID_00000132069404712344332700000018027332019098273159_);fill:none;}
	.st1{clip-path:url(#SVGID_00000132069404712344332700000018027332019098273159_);}
	.st2{clip-path:url(#SVGID_00000057138585580062554730000014237888757377168312_);fill:#A0FF99;}
	.st3{clip-path:url(#SVGID_00000096745925368080342590000001288993905541142402_);fill:#8AE6D6;}
	.st4{fill:#FFFFFF;}
	.st5{fill:#8AE6D6;}
	.st6{fill:#3A3A3A;}
</style>
<g>
	<g>
		<defs>
			<rect id="SVGID_1_" width="50" height="42"/>
		</defs>
		<clipPath id="SVGID_00000074442814966034442340000008527201584676137115_">
			<use xlink:href="#SVGID_1_"  style="overflow:visible;"/>
		</clipPath>
		<rect style="clip-path:url(#SVGID_00000074442814966034442340000008527201584676137115_);fill:none;" width="49" height="42"/>
		<g style="clip-path:url(#SVGID_00000074442814966034442340000008527201584676137115_);">
			<g>
				<defs>
					<rect id="SVGID_00000157997294807406631290000017016026752090950274_" x="-9" y="21" width="56" height="25"/>
				</defs>
				<clipPath id="SVGID_00000152952571728794106330000009366442409398131342_">
					<use xlink:href="#SVGID_00000157997294807406631290000017016026752090950274_"  style="overflow:visible;"/>
				</clipPath>
				<path style="clip-path:url(#SVGID_00000152952571728794106330000009366442409398131342_);fill:#A0FF99;" d="M39.2,21.8
					c0,11-8.9,19.8-19.8,19.8c-11,0-19.8-8.9-19.8-19.8C-0.5,10.9,8.4,2,19.4,2C30.3,2,39.2,10.9,39.2,21.8z"/>
			</g>
			<g>
				<defs>
					<rect id="SVGID_00000168079906320191473970000012829705071711387304_" x="2" y="-6" width="56" height="27"/>
				</defs>
				<clipPath id="SVGID_00000021086740250229050980000018060766422844524440_">
					<use xlink:href="#SVGID_00000168079906320191473970000012829705071711387304_"  style="overflow:visible;"/>
				</clipPath>
				<path style="clip-path:url(#SVGID_00000021086740250229050980000018060766422844524440_);fill:#8AE6D6;" d="M50.3,20.3
					c0,11-8.9,19.8-19.8,19.8c-11,0-19.8-8.9-19.8-19.8c0-11,8.9-19.8,19.8-19.8C41.4,0.4,50.3,9.3,50.3,20.3z"/>
			</g>
			<g>
				<path class="st4" d="M33,21.2c0,4.4-3.5,7.9-7.9,7.9c-4.4,0-7.9-3.5-7.9-7.9c0-4.4,3.5-7.9,7.9-7.9C29.4,13.3,33,16.8,33,21.2z"
					/>
				<path class="st5" d="M30.2,21c0,2.9-2.3,5.2-5.2,5.2c-2.9,0-5.2-2.3-5.2-5.2c0-2.9,2.3-5.2,5.2-5.2C27.8,15.8,30.2,18.2,30.2,21
					z"/>
				<path class="st4" d="M25.4,18.7c0,1.3-1.1,2.4-2.4,2.4c-1.3,0-2.4-1.1-2.4-2.4c0-1.3,1.1-2.4,2.4-2.4
					C24.4,16.3,25.4,17.4,25.4,18.7z"/>
			</g>
		</g>
	</g>
	<g>
		<path class="st6" d="M64.6,16.7c-1.5-2.8-2.6-4.9-3.4-6.2C61,10.2,60.9,9.8,61,9.3c0.1-0.4,0.3-0.8,0.7-1C62.1,8.1,62.5,8,63,8.2
			c0.4,0.1,0.8,0.4,1,0.8c1.2,2,2.3,4,3.3,6.1c1.6-1,3.3-1.8,5-2.6c-1.5-1.1-2.8-1.9-4-2.6c-0.6-0.3-0.8-0.8-0.8-1.4
			c0.1-0.7,0.4-1.2,0.9-1.4C69,6.7,69.5,6.7,70,7.1c2,1.1,3.9,2.3,5.6,3.7c3-1.3,5.9-1.3,8.8,0c2.4,1.3,3.9,3.4,4.4,6.1
			c0.5,2.7-0.2,5.1-2,7.1c-1.7,1.6-3.7,2.7-5.9,3.1c-2.3,0.5-4.5,0.3-6.7-0.4c-0.4-0.2-0.6-0.5-0.8-0.9c-0.2-0.4-0.1-0.8,0-1.2
			c0.2-0.4,0.5-0.7,0.9-0.9c0.4-0.2,0.8-0.2,1.2,0c1.6,0.5,3.2,0.6,4.8,0.3c1.6-0.4,3.1-1.1,4.3-2.3c1-1.3,1.3-2.7,1.1-4.2
			c-0.2-1.5-1-2.8-2.3-3.7c-1.4-0.8-3.1-1-5.1-0.6c0.5,0.7,1.1,1.5,2,2.6c0.3,0.3,0.4,0.7,0.3,1.2c-0.1,0.5-0.3,0.8-0.6,1.1
			c-0.4,0.2-0.8,0.3-1.3,0.2c-0.5-0.1-0.8-0.3-1.1-0.6c-0.9-1.2-1.8-2.3-2.7-3.2c-2.3,0.9-4.4,2-6.3,3.4c2.4,5,4.4,10,6,15
			c0.1,0.3,0.1,0.7-0.1,1.1c-0.2,0.4-0.5,0.7-0.9,0.8c-0.4,0.1-0.8,0.1-1.1-0.1c-0.4-0.2-0.7-0.5-0.8-0.9c-1.5-4.8-3.4-9.5-5.7-14.3
			l-2.2,1.8c-0.3,0.3-0.7,0.5-1.2,0.4c-0.5,0-0.8-0.2-1.1-0.5c-0.3-0.3-0.4-0.7-0.4-1.1c0-0.4,0.2-0.8,0.6-1.1
			C63,18,63.9,17.2,64.6,16.7z"/>
		<path class="st6" d="M105.8,7.4c0.6,1.6,1.4,3.4,2.6,5.2c2.6-0.5,5.1-1.1,7.4-1.8c0.3-0.1,0.7,0,1,0.2c0.3,0.2,0.5,0.4,0.7,0.8
			c0.1,0.3,0.1,0.7-0.1,1c-0.2,0.3-0.4,0.6-0.7,0.7c-1.9,0.7-4.1,1.2-6.6,1.7c2.8,3.6,5.9,6.6,9.2,8.8c0.3,0.2,0.5,0.5,0.5,0.9
			c0.1,0.4,0,0.7-0.2,1c-0.2,0.3-0.5,0.5-0.9,0.6c-0.4,0.1-0.7,0-1.1-0.2c-4.2-2.4-8.7-3.6-13.6-3.6c-1.3,0-2.6,0.4-3.7,1.2
			c-1.1,0.8-1.9,1.9-2.2,3.3c-0.1,1.2,0.2,2.4,0.9,3.4c0.7,1,1.7,1.6,2.9,1.8c5.2,0.6,10.4,0,15.4-1.8c0.3-0.1,0.7-0.1,1.1,0
			c0.4,0.2,0.6,0.4,0.7,0.8c0.1,0.4,0.1,0.7,0,1.1c-0.2,0.4-0.4,0.6-0.8,0.6c-5.5,2.2-11.3,2.8-17.3,1.7c-2.2-0.4-3.8-1.6-4.8-3.4
			c-1.1-1.9-1.3-3.9-0.6-5.9c0.6-1.7,1.6-3,3.1-4c1.4-1,3-1.6,4.8-1.7c1.9,0,4.4,0.2,7.4,0.7c-1.7-1.9-3-3.5-3.9-4.9
			c-4.1,0.7-8.1,1.1-12,1.1c-0.4,0-0.7-0.1-1-0.4c-0.3-0.3-0.4-0.6-0.4-1c0-0.4,0.1-0.7,0.4-1c0.3-0.3,0.6-0.4,1-0.4
			c3.1,0,6.6-0.3,10.4-0.9c-0.9-1.6-1.6-3.1-2.2-4.6c-0.1-0.4-0.1-0.7,0-1.1c0.1-0.4,0.4-0.6,0.7-0.8c0.4-0.1,0.7-0.1,1.1,0
			C105.4,6.8,105.7,7.1,105.8,7.4z"/>
		<path class="st6" d="M126.7,8.8c0-0.4,0.2-0.8,0.5-1.1c0.3-0.3,0.7-0.5,1.1-0.5c0.4,0,0.8,0.2,1.1,0.5c0.3,0.3,0.5,0.7,0.5,1.1
			v19.7c0.1,0.8,0.5,1.6,1.1,2.1c0.7,0.6,1.4,0.8,2.3,0.8c3-0.1,5.7-1,8.2-2.6c2.5-1.7,4.4-3.9,5.7-6.6c0.2-0.4,0.5-0.7,0.9-0.8
			c0.4-0.1,0.8-0.1,1.2,0.1c0.4,0.2,0.7,0.5,0.8,0.9c0.2,0.4,0.1,0.8,0,1.2c-1.6,3.4-3.9,6.1-7,8.1c-3.1,2-6.6,3-10.3,3
			c-1.6,0-3-0.6-4.2-1.8c-1.2-1.2-1.8-2.6-1.8-4.2V8.8z"/>
		<path class="st6" d="M159.3,15.4c-0.4,0-0.7-0.1-1-0.5c-0.3-0.3-0.5-0.7-0.5-1c0-0.4,0.2-0.8,0.5-1.1c0.3-0.3,0.7-0.5,1-0.5
			c2.6-0.1,5.4-0.3,8.3-0.7c-0.5-1.3-0.9-2.1-1-2.5c-0.2-0.4-0.2-0.8-0.1-1.2c0.2-0.4,0.5-0.6,0.9-0.7c0.4-0.2,0.8-0.2,1.2,0
			c0.4,0.2,0.6,0.5,0.8,0.9c0.3,0.9,0.8,1.8,1.4,2.9c2-0.4,4.2-0.9,6.4-1.7c0.5-0.1,0.9-0.1,1.2,0.1c0.4,0.2,0.6,0.5,0.7,0.8
			c0.2,0.5,0.2,0.9,0,1.3c-0.2,0.4-0.5,0.6-0.9,0.7c-2,0.7-4,1.2-6,1.6l1.3,2.1c2.9-0.7,5.6-1.6,8.1-2.5c0.4-0.2,0.8-0.1,1.2,0
			c0.4,0.2,0.6,0.5,0.8,0.9c0.2,0.3,0.2,0.7,0,1.1c-0.2,0.4-0.5,0.7-0.8,0.7c-2.3,0.8-4.6,1.6-7.2,2.3c2.1,2.4,4.4,4.5,6.9,6.2
			c0.2,0.2,0.4,0.5,0.4,0.9c0.1,0.4,0,0.8-0.2,1.1c-0.2,0.3-0.5,0.6-0.9,0.7c-0.4,0.1-0.7,0.1-1.1-0.1c-4.5-2.4-9.3-3.3-14.4-2.7
			c-1.3,0.1-2.3,0.6-3,1.5c-0.5,0.6-0.7,1.3-0.6,2c0,0.7,0.3,1.3,0.8,1.8c1.2,1,2.5,1.5,4,1.7c4.1,0.5,8.2,0.1,12.2-1.2
			c0.4-0.1,0.8-0.1,1.2,0.2c0.4,0.2,0.6,0.5,0.7,0.9c0.1,0.4,0.1,0.7-0.1,1c-0.2,0.3-0.5,0.5-0.9,0.6c-4.4,1.4-9,1.8-13.7,1.3
			c-2.5-0.3-4.5-1.3-6.2-2.9c-0.8-1-1.2-2.1-1.2-3.4c0-1.3,0.4-2.5,1.2-3.5c1.4-1.6,3.2-2.5,5.2-2.9c2.8-0.3,5.7-0.2,8.5,0.4
			c-1.2-1.3-2-2.2-2.3-2.6c-4.6,1-9.2,1.5-13.8,1.6c-0.4,0-0.8-0.2-1.1-0.5c-0.3-0.3-0.5-0.6-0.5-1c0-0.4,0.1-0.8,0.4-1.1
			c0.3-0.3,0.6-0.5,1.1-0.5c3.8-0.1,7.8-0.6,11.9-1.4l-1.3-2.1C165.7,15.1,162.5,15.4,159.3,15.4z"/>
		<path class="st6" d="M187.8,31.5V8.7c0-0.6,0.3-1.1,0.7-1.5c0.4-0.4,0.9-0.6,1.4-0.7h5c0.5,0.1,1,0.3,1.4,0.7
			c0.4,0.4,0.5,0.9,0.5,1.4v23l1.7-0.4V8.7c0-0.7,0.2-1.2,0.7-1.6c0.4-0.4,1-0.6,1.6-0.6h11.6c0.6,0,1,0.2,1.4,0.6
			c0.4,0.4,0.6,0.9,0.6,1.5v9.5c0,0.5-0.3,1-0.7,1.4c-0.4,0.4-0.9,0.6-1.4,0.6h-6.4c0.5,1.7,1.2,3.2,2.2,4.6l3.5-3.4
			c0.4-0.3,0.8-0.5,1.3-0.5c0.5,0,0.9,0.2,1.2,0.5c0.3,0.4,0.5,0.8,0.5,1.3c0,0.5-0.1,0.9-0.5,1.2l-3.8,3.7c1.4,1.7,3.1,3,5.1,3.8
			c0.5,0.2,0.8,0.6,0.9,1.1c0.1,0.5,0.1,1-0.2,1.4c-0.2,0.4-0.6,0.7-1.1,0.8c-0.5,0.1-1,0-1.4-0.2c-2.8-1.5-5.2-3.5-7.2-6
			c-1.9-2.4-3.3-5.2-4.1-8.3h-0.7v10.3l3.3-0.9c0.5-0.2,0.9-0.1,1.4,0.1c0.4,0.2,0.7,0.6,0.9,1c0.1,0.5,0.1,0.9-0.1,1.4
			c-0.2,0.5-0.6,0.7-1,0.9l-8.2,2.3c-0.6,0.1-1,0-1.5-0.3c-0.5-0.4-0.7-0.8-0.7-1.4c-0.4,0.2-0.7,0.3-1.1,0.3h-4.7
			c-0.6-0.1-1-0.3-1.4-0.8C188,32.6,187.8,32.1,187.8,31.5z M190.9,9.7v4.5h2.8V9.7H190.9z M190.9,17.4v4.8h2.8v-4.8H190.9z
			 M190.9,25.6v5.2h2.8v-5.2H190.9z M201.6,9.7v2.2h9.8V9.7H201.6z M201.6,14.8v2.2h9.8v-2.2H201.6z"/>
		<path class="st6" d="M220.6,14h4V10c-1.3,0.1-2.5,0.2-3.5,0.1c-0.5,0-0.8-0.2-1.1-0.6c-0.3-0.3-0.4-0.7-0.4-1.2
			c0-0.4,0.2-0.8,0.5-1.1c0.3-0.3,0.7-0.5,1.1-0.6c3.1,0.1,6.1-0.4,9.1-1.3c0.5-0.1,0.9-0.1,1.3,0c0.4,0.2,0.7,0.5,0.9,0.9
			c0.2,0.4,0.2,0.9,0,1.3c-0.2,0.4-0.5,0.7-0.9,0.9c-1.4,0.4-2.6,0.8-3.7,1V14h2.9c0.5,0,0.9,0.2,1.2,0.6c0.3,0.3,0.5,0.7,0.5,1.2
			c0,0.5-0.2,0.9-0.5,1.2c-0.3,0.4-0.7,0.5-1.2,0.6h-2.5l4.1,5.8c0.2,0.4,0.3,0.7,0.2,1.1c-0.1,0.4-0.3,0.7-0.7,0.9
			c-0.3,0.3-0.7,0.4-1.1,0.3c-0.4-0.1-0.7-0.2-1-0.6l-2-2.8v12.3c0,0.4-0.2,0.8-0.5,1.1c-0.3,0.3-0.7,0.5-1.1,0.4
			c-0.4,0-0.8-0.1-1.1-0.4c-0.3-0.3-0.5-0.7-0.5-1.1v-12c-1,1.6-2.3,3.2-3.7,4.8c-0.3,0.3-0.7,0.4-1.1,0.4c-0.4,0-0.8-0.1-1.1-0.5
			c-0.3-0.3-0.5-0.7-0.5-1.1c0-0.4,0.1-0.8,0.4-1.1c2.2-2.4,3.9-4.9,5.2-7.7h-3.2c-0.5,0-0.9-0.2-1.2-0.6c-0.4-0.4-0.5-0.8-0.5-1.3
			c0-0.5,0.2-0.9,0.5-1.2C219.7,14.2,220.1,14,220.6,14z M230.9,26.4l11-1.7V7.8c0-0.5,0.2-0.9,0.5-1.2s0.7-0.5,1.2-0.5
			c0.5,0,0.9,0.2,1.2,0.5c0.3,0.3,0.5,0.7,0.5,1.2v16.4l2-0.3c0.5-0.1,0.9-0.1,1.3,0.2c0.4,0.3,0.7,0.6,0.8,1.1
			c0.1,0.5,0.1,0.9-0.2,1.3c-0.3,0.4-0.6,0.7-1.1,0.8l-2.8,0.4v7.4c0,0.4-0.2,0.8-0.6,1.1c-0.3,0.3-0.7,0.5-1.1,0.5
			c-0.4,0-0.8-0.2-1.1-0.5c-0.3-0.3-0.5-0.7-0.6-1.1v-6.9l-10.6,1.6c-0.5,0.1-0.9-0.1-1.2-0.4c-0.4-0.3-0.6-0.7-0.6-1.2
			c-0.1-0.4,0-0.8,0.3-1.2C230,26.7,230.4,26.5,230.9,26.4z M232.8,17.7c-0.3-0.3-0.5-0.7-0.5-1.2c0-0.5,0.1-0.8,0.4-1.2
			c0.3-0.4,0.7-0.5,1.2-0.6c0.5,0,0.9,0.1,1.2,0.4c1.7,1.6,3.3,3.3,4.7,5.2c0.2,0.4,0.3,0.8,0.2,1.3c-0.1,0.4-0.3,0.8-0.7,1.1
			c-0.3,0.2-0.7,0.4-1.2,0.3c-0.5,0-0.8-0.2-1.1-0.6C235.9,20.7,234.5,19.1,232.8,17.7z M234.3,10c-0.3-0.4-0.5-0.8-0.5-1.2
			c0-0.5,0.2-0.9,0.5-1.2c0.3-0.3,0.7-0.5,1.2-0.5c0.5,0,0.8,0.1,1.2,0.5c1.9,1.7,3.5,3.6,4.9,5.7c0.2,0.4,0.3,0.8,0.2,1.2
			c-0.1,0.5-0.3,0.8-0.7,1.1c-0.3,0.2-0.7,0.3-1.2,0.2c-0.5-0.1-0.8-0.3-1.1-0.6C237.3,13.2,235.8,11.5,234.3,10z"/>
	</g>
</g>
</svg>
